<?xml version="1.0" encoding="utf-8"?>
<svg version="1.1" xmlns:xlink="http://www.w3.org/1999/xlink" width="50px" height="50px" xmlns="http://www.w3.org/2000/svg">
  <g transform="matrix(1 0 0 1 -196 -647 )">
    <path d="M 35.109998773327 25  L 49.689997004297 39.5899982297568  C 49.890942711445 39.8314652453097  50.0006650890447 40.1358563573605  49.9999969666839 40.4499981254107  C 49.9985301145016 40.7577172795262  49.8887821970852 41.0550987331707  49.689997004297 41.2899980234913  L 41.2899980234913 49.6899970042971  C 41.0550987331707 49.8887821970852  40.7577172795262 49.9985301145016  40.4499981254107 49.9999969666839  C 40.1358563573605 50.0006650890447  39.8314652453096 49.890942711445  39.5899982297567 49.6899970042971  L 25 35.109998773327  L 10.4100017702433 49.689997004297  C 10.1685347546904 49.890942711445  9.86414364263954 50.0006650890447  9.55000187458933 49.9999969666839  C 9.24228272047377 49.9985301145016  8.94490126682929 49.8887821970852  8.71000197650875 49.6899970042971  L 0.310002995702946 41.2899980234913  C 0.111217802914787 41.0550987331707  0.00146988549837091 40.7577172795262  0 40.4499981254107  C -0.000665089044673308 40.1358563573605  0.109057288555039 39.8314652453097  0.310002995702946 39.5899982297568  L 14.890001226673 25  L 0.310002995702946 10.4100017702433  C 0.109057288555038 10.1685347546904  -0.000665089044674429 9.86414364263954  0 9.55000187458933  C 0.00146988549837009 9.24228272047378  0.111217802914787 8.94490126682929  0.310002995702946 8.71000197650875  L 8.71000197650875 0.310002995702946  C 8.94490126682929 0.111217802914786  9.24228272047377 0.00146988549837001  9.55000187458933 0  C 9.86414364263954 -0.000665089044674518  10.1685347546904 0.109057288555038  10.4100017702433 0.310002995702946  L 25 14.890001226673  L 39.5899982297567 0.310002995702946  C 39.8314652453096 0.109057288555038  40.1358563573605 -0.000665089044673401  40.4499981254107 0  C 40.7577172795262 0.00146988549836864  41.0550987331707 0.111217802914786  41.2899980234913 0.310002995702946  L 49.6899970042971 8.71000197650875  C 49.8887821970852 8.94490126682929  49.9985301145016 9.24228272047377  49.9999969666839 9.55000187458933  C 50.0006650890447 9.86414364263954  49.890942711445 10.1685347546904  49.6899970042971 10.4100017702433  L 35.109998773327 25  Z " fill-rule="nonzero" fill="#61686e" stroke="none" transform="matrix(1 0 0 1 196 647 )" />
  </g>
</svg>